<svg width="32" height="32" viewBox="0 0 32 32" fill="none" xmlns="http://www.w3.org/2000/svg">
    <path d="M15.9999 24C17.3803 23.9977 18.7366 23.6382 19.9369 22.9565C21.1372 22.2749 22.1407 21.2943 22.8499 20.11L21.1399 19.11C20.6062 19.9962 19.8525 20.7294 18.9519 21.2383C18.0513 21.7473 17.0344 22.0148 15.9999 22.0148C14.9654 22.0148 13.9485 21.7473 13.0479 21.2383C12.1473 20.7294 11.3936 19.9962 10.8599 19.11L9.1499 20.11C9.85907 21.2943 10.8626 22.2749 12.0629 22.9565C13.2633 23.6382 14.6195 23.9977 15.9999 24Z" fill="black"/>
    <path d="M16 2C13.2311 2 10.5243 2.82109 8.22202 4.35943C5.91973 5.89777 4.12532 8.08427 3.06569 10.6424C2.00607 13.2006 1.72882 16.0155 2.26901 18.7313C2.80921 21.447 4.14258 23.9416 6.10051 25.8995C8.05845 27.8574 10.553 29.1908 13.2687 29.731C15.9845 30.2712 18.7994 29.9939 21.3576 28.9343C23.9157 27.8747 26.1022 26.0803 27.6406 23.778C29.1789 21.4757 30 18.7689 30 16C30 12.287 28.525 8.72601 25.8995 6.1005C23.274 3.475 19.713 2 16 2ZM16 4C18.2945 4.00358 20.5398 4.66488 22.4699 5.90554C24.4 7.1462 25.934 8.9142 26.89 11H25C25 10.7348 24.8946 10.4804 24.7071 10.2929C24.5196 10.1054 24.2652 10 24 10H8.00001C7.73479 10 7.48044 10.1054 7.2929 10.2929C7.10536 10.4804 7.00001 10.7348 7.00001 11H5.11001C6.06603 8.9142 7.59999 7.1462 9.5301 5.90554C11.4602 4.66488 13.7055 4.00358 16 4ZM16 28C12.8174 28 9.76516 26.7357 7.51472 24.4853C5.26429 22.2348 4.00001 19.1826 4.00001 16C4.00467 14.987 4.1391 13.9788 4.40001 13H7.00001V15C7.00001 15.5304 7.21072 16.0391 7.58579 16.4142C7.96087 16.7893 8.46957 17 9.00001 17H12.31C12.7879 17.0065 13.2524 16.8417 13.6193 16.5354C13.9861 16.229 14.2312 15.8014 14.31 15.33L14.83 12H17.17L17.72 15.33C17.7988 15.8014 18.0439 16.229 18.4107 16.5354C18.7776 16.8417 19.2421 17.0065 19.72 17H23C23.5304 17 24.0391 16.7893 24.4142 16.4142C24.7893 16.0391 25 15.5304 25 15V13H27.6C27.8609 13.9788 27.9953 14.987 28 16C28 19.1826 26.7357 22.2348 24.4853 24.4853C22.2348 26.7357 19.1826 28 16 28Z" fill="black"/>
</svg>
