<svg width="32" height="32" viewBox="0 0 32 32" fill="none" xmlns="http://www.w3.org/2000/svg">
    <path d="M19 10H26V12H19V10ZM19 15H26V17H19V15ZM19 20H26V22H19V20Z" fill="black"/>
    <path d="M28 5H4C3.46973 5.00053 2.96133 5.21141 2.58637 5.58637C2.21141 5.96133 2.00053 6.46973 2 7V25C2.00061 25.5302 2.21152 26.0386 2.58646 26.4135C2.9614 26.7885 3.46975 26.9994 4 27H28C28.5302 26.9993 29.0385 26.7883 29.4134 26.4134C29.7883 26.0385 29.9993 25.5302 30 25V7C29.9994 6.46975 29.7885 5.9614 29.4135 5.58646C29.0386 5.21152 28.5302 5.00061 28 5ZM4 7H15V25H4V7ZM17 25V7H28L28.002 25H17Z" fill="black"/>
</svg>
