<svg width="128" height="128" viewBox="0 0 128 128" fill="none" xmlns="http://www.w3.org/2000/svg">
    <rect width="128" height="128" fill="white" fill-opacity="0.01" style="mix-blend-mode:multiply"/>
    <path d="M63.9999 125.344L17.8079 98.672L63.9999 72.016L110.176 98.672L63.9999 125.344Z"
          fill="url(#paint0_linear_13390_277596)"/>
    <path d="M64.0002 109.36L17.7922 82.6881L17.8082 29.3281L64.0002 55.9841V109.36Z"
          fill="url(#paint1_linear_13390_277596)"/>
    <path d="M110.208 82.688L64 109.36V55.984L110.192 29.328L110.208 82.688Z" fill="url(#paint2_linear_13390_277596)"/>
    <path d="M63.9999 55.9839L17.8079 29.3279L63.9999 2.65585L110.192 29.3279L63.9999 55.9839Z"
          fill="url(#paint3_linear_13390_277596)"/>
    <path d="M41.552 42.6718L87.424 16.1918L86.752 15.8078L40.864 42.3038L41.552 42.6718Z" fill="#C6C6C6"/>
    <path d="M63.9999 56.3839L17.8079 29.7119V29.3279L18.1439 29.1359L64.3359 55.8079L63.9999 55.9839V56.3839Z"
          fill="white"/>
    <path d="M34.384 53.328L21.264 45.76L21.28 36.656L34.384 44.24V53.328Z" fill="white"/>
    <defs>
        <linearGradient id="paint0_linear_13390_277596" x1="29.3599" y1="118.672" x2="98.6399" y2="78.672"
                        gradientUnits="userSpaceOnUse">
            <stop stop-color="#525252" stop-opacity="0.05"/>
            <stop offset="1" stop-opacity="0.1"/>
        </linearGradient>
        <linearGradient id="paint1_linear_13390_277596" x1="24.2562" y1="69.3441" x2="64.4962" y2="69.3441"
                        gradientUnits="userSpaceOnUse">
            <stop stop-color="#E0E0E0"/>
            <stop offset="1" stop-color="#C6C6C6"/>
        </linearGradient>
        <linearGradient id="paint2_linear_13390_277596" x1="64" y1="69.344" x2="110.208" y2="69.344"
                        gradientUnits="userSpaceOnUse">
            <stop stop-color="#A8A8A8"/>
            <stop offset="1" stop-color="#C6C6C6"/>
        </linearGradient>
        <linearGradient id="paint3_linear_13390_277596" x1="29.3599" y1="49.3279" x2="98.6399" y2="9.32785"
                        gradientUnits="userSpaceOnUse">
            <stop stop-color="#F4F4F4"/>
            <stop offset="1" stop-color="#E0E0E0"/>
        </linearGradient>
    </defs>
</svg>
