<svg width="128" height="128" viewBox="0 0 128 128" fill="none" xmlns="http://www.w3.org/2000/svg">
    <rect width="128" height="128" fill="white" fill-opacity="0.01" style="mix-blend-mode:multiply"/>
    <path d="M95.8563 125.344L27.0563 85.6159L34.8323 81.1199L103.632 120.848L95.8563 125.344Z" fill="url(#paint0_linear_13390_277672)"/>
    <path d="M62.3995 11.0721C81.8395 22.2721 97.5995 49.4721 97.4715 71.8721C97.3435 94.2721 81.5995 103.184 62.1275 91.9681C42.6555 80.7521 26.9275 53.5681 27.0555 31.1681C27.1835 8.76805 42.9275 -0.143946 62.3995 11.0721Z" fill="url(#paint1_linear_13390_277672)"/>
    <path d="M68.5601 7.48799C58.7841 1.83999 49.9201 1.31199 43.5201 5.03999L37.6641 8.44799C44.0321 4.92799 52.8001 5.51999 62.4001 11.072C81.8401 22.272 97.6001 49.472 97.4721 71.872C97.4721 82.704 93.7121 90.4 87.6641 94.176H87.5521C87.0401 94.496 93.4081 90.816 93.4081 90.816C99.8081 87.136 103.632 79.328 103.664 68.224C103.696 45.92 88.0001 18.704 68.5601 7.48799Z" fill="url(#paint2_linear_13390_277672)"/>
    <path d="M46.5763 6.25584V6.83184C52.0706 7.04566 57.412 8.70105 62.0643 11.6318C81.2643 22.7358 96.9123 49.7758 96.8483 71.8718C96.8483 86.9118 89.5523 96.2398 77.9203 96.2398C72.4253 96.0298 67.083 94.3741 62.4323 91.4398C43.2003 80.3358 27.5843 53.3118 27.6483 31.1998C27.6483 16.1758 34.9443 6.83184 46.5763 6.83184V6.25584ZM46.5763 6.25584C35.0403 6.25584 27.1043 15.3918 27.0563 31.1998C27.0563 53.5998 42.6883 80.7998 62.1283 91.9998C66.8857 94.945 72.3286 96.5994 77.9203 96.7998C89.4563 96.7998 97.3923 87.6638 97.4403 71.8398C97.4403 49.5198 81.8083 22.3198 62.3683 11.0398C57.6146 8.08644 52.1694 6.43139 46.5763 6.23984V6.25584Z" fill="url(#paint3_linear_13390_277672)"/>
    <path d="M62.2875 79.664C60.5335 78.7325 59.0631 77.3451 58.0315 75.648C57.1931 74.1864 56.7467 72.5329 56.7355 70.848V69.248C56.6676 68.6488 56.7506 68.0422 56.977 67.4833C57.2033 66.9244 57.5658 66.431 58.0315 66.048C58.8955 65.488 60.3195 65.776 62.2875 66.912C64.0192 67.8383 65.4636 69.2218 66.4635 70.912C67.3054 72.3722 67.7521 74.0265 67.7595 75.712V77.312C67.8446 77.9241 67.77 78.5477 67.5429 79.1224C67.3158 79.6971 66.944 80.2034 66.4635 80.592C65.5995 81.056 64.2075 80.784 62.2875 79.664ZM60.4315 61.056L57.5995 36.432V20.8L66.8955 26.176V41.744L64.2715 63.28L60.4315 61.056Z" fill="url(#paint4_linear_13390_277672)"/>
    <defs>
        <linearGradient id="paint0_linear_13390_277672" x1="47.9363" y1="73.0879" x2="85.0403" y2="137.344" gradientUnits="userSpaceOnUse">
            <stop stop-color="#525252" stop-opacity="0.05"/>
            <stop offset="1" stop-opacity="0.1"/>
        </linearGradient>
        <linearGradient id="paint1_linear_13390_277672" x1="62.2395" y1="84.1441" x2="62.2395" y2="5.28005" gradientUnits="userSpaceOnUse">
            <stop stop-color="#C6C6C6"/>
            <stop offset="0.78" stop-color="#E0E0E0"/>
        </linearGradient>
        <linearGradient id="paint2_linear_13390_277672" x1="28.9121" y1="22.496" x2="114.624" y2="71.984" gradientUnits="userSpaceOnUse">
            <stop stop-color="#E0E0E0"/>
            <stop offset="0.13" stop-color="#F4F4F4"/>
            <stop offset="0.56" stop-color="#E0E0E0"/>
            <stop offset="0.62" stop-color="#D8D8D8"/>
            <stop offset="0.7" stop-color="#C6C6C6"/>
            <stop offset="0.89" stop-color="#A8A8A8"/>
            <stop offset="1" stop-color="#8D8D8D"/>
        </linearGradient>
        <linearGradient id="paint3_linear_13390_277672" x1="44.7043" y1="81.9038" x2="79.7923" y2="21.1358" gradientUnits="userSpaceOnUse">
            <stop offset="0.54" stop-color="#D0D0D0" stop-opacity="0"/>
            <stop offset="0.82" stop-color="#F1F1F1" stop-opacity="0.7"/>
            <stop offset="0.94" stop-color="white"/>
        </linearGradient>
        <linearGradient id="paint4_linear_13390_277672" x1="45.8555" y1="42.128" x2="75.4395" y2="59.2" gradientUnits="userSpaceOnUse">
            <stop stop-color="white"/>
            <stop offset="0.05" stop-color="#FDFDFD"/>
            <stop offset="0.3" stop-color="#F6F6F6"/>
            <stop offset="1" stop-color="#F4F4F4"/>
        </linearGradient>
    </defs>
</svg>
