<svg width="32" height="32" viewBox="0 0 32 32" fill="none" xmlns="http://www.w3.org/2000/svg">
    <path d="M26 6H4V9.17L11.41 16.59L12 17.17V26H16V24H18V26C18 26.5304 17.7893 27.0391 17.4142 27.4142C17.0391 27.7893 16.5304 28 16 28H12C11.4696 28 10.9609 27.7893 10.5858 27.4142C10.2107 27.0391 10 26.5304 10 26V18L2.59 10.59C2.40283 10.4039 2.25434 10.1827 2.15308 9.93897C2.05182 9.69526 1.99979 9.43391 2 9.17V6C2 5.46957 2.21071 4.96086 2.58579 4.58579C2.96086 4.21071 3.46957 4 4 4H26V6Z" fill="black"/>
    <path d="M29.71 11.2899L26.71 8.28994C26.617 8.19621 26.5064 8.12182 26.3846 8.07105C26.2627 8.02028 26.132 7.99414 26 7.99414C25.868 7.99414 25.7373 8.02028 25.6154 8.07105C25.4936 8.12182 25.383 8.19621 25.29 8.28994L16 17.5899V21.9999H20.41L29.71 12.7099C29.8037 12.617 29.8781 12.5064 29.9289 12.3845C29.9797 12.2627 30.0058 12.132 30.0058 11.9999C30.0058 11.8679 29.9797 11.7372 29.9289 11.6154C29.8781 11.4935 29.8037 11.3829 29.71 11.2899ZM19.59 19.9999H18V18.4099L23 13.4099L24.59 14.9999L19.59 19.9999ZM26 13.5899L24.41 11.9999L26 10.4099L27.59 11.9999L26 13.5899Z" fill="black"/>
</svg>
