<svg width="32" height="32" viewBox="0 0 32 32" fill="none" xmlns="http://www.w3.org/2000/svg">
    <path d="M7.50989 26C7.02358 26.0009 6.53933 25.937 6.06989 25.81C4.66079 25.4082 3.46532 24.4701 2.73995 23.197C2.01459 21.9238 1.81711 20.4171 2.18989 19L4.51989 10.16C4.70135 9.44461 5.02393 8.77266 5.4687 8.18364C5.91347 7.59462 6.47146 7.10041 7.10989 6.73004C7.73152 6.36999 8.41841 6.13687 9.13078 6.04417C9.84314 5.95148 10.5668 6.00106 11.2599 6.19004C11.9966 6.39463 12.6828 6.75005 13.275 7.23376C13.8672 7.71748 14.3524 8.31895 14.6999 9.00004H17.2999C17.6459 8.31786 18.1306 7.71551 18.723 7.23161C19.3154 6.7477 20.0024 6.39293 20.7399 6.19004C21.433 6.00106 22.1566 5.95148 22.869 6.04417C23.5814 6.13687 24.2683 6.36999 24.8899 6.73004C25.5252 7.09946 26.0812 7.59096 26.5257 8.17621C26.9702 8.76146 27.2945 9.42889 27.4799 10.14L29.8099 19C30.1882 20.4212 29.9923 21.9342 29.2645 23.2122C28.5366 24.4901 27.3353 25.4305 25.9199 25.83C25.2268 26.019 24.5031 26.0686 23.7908 25.9759C23.0784 25.8832 22.3915 25.6501 21.7699 25.29C21.1335 24.9219 20.5768 24.4308 20.1321 23.8454C19.6874 23.2599 19.3637 22.5918 19.1799 21.88L18.9999 21H12.9999L12.7699 21.86C12.586 22.5718 12.2623 23.2399 11.8177 23.8254C11.373 24.4108 10.8163 24.9019 10.1799 25.27C9.36737 25.7387 8.44782 25.9901 7.50989 26ZM9.82989 8.00004C9.22643 8.00209 8.63381 8.16058 8.10989 8.46004C7.28874 8.94182 6.69187 9.72926 6.44989 10.65L4.11989 19.49C3.87607 20.4008 3.99927 21.3708 4.46301 22.1917C4.92674 23.0126 5.69399 23.6188 6.59989 23.88C7.03739 23.9994 7.49422 24.0308 7.94394 23.9724C8.39366 23.9141 8.82734 23.7671 9.21989 23.54C9.62859 23.3041 9.98599 22.9888 10.2711 22.6127C10.5561 22.2366 10.7631 21.8073 10.8799 21.35L11.4999 19H20.4999L21.1099 21.35C21.2287 21.8064 21.4365 22.2348 21.7214 22.6107C22.0063 22.9865 22.3626 23.3023 22.7699 23.54C23.1644 23.7669 23.5997 23.9137 24.051 23.972C24.5023 24.0303 24.9607 23.9991 25.3999 23.88C26.3069 23.6212 27.0751 23.0149 27.5376 22.1929C28.0001 21.3709 28.1195 20.3996 27.8699 19.49L25.5399 10.65C25.4238 10.1938 25.2181 9.76528 24.9349 9.3893C24.6516 9.01333 24.2964 8.69745 23.8899 8.46004C23.4954 8.23321 23.06 8.08642 22.6088 8.02807C22.1575 7.96973 21.6991 8.00098 21.2599 8.12004C20.7167 8.27487 20.2184 8.55706 19.8062 8.94316C19.394 9.32927 19.0798 9.80816 18.8899 10.34L18.6499 11H13.3499L13.1099 10.34C12.9182 9.80745 12.6024 9.32822 12.1884 8.94214C11.7745 8.55605 11.2745 8.27422 10.7299 8.12004C10.4364 8.04091 10.1338 8.00056 9.82989 8.00004Z" fill="black"/>
    <path d="M10 16C9.60444 16 9.21776 15.8827 8.88886 15.6629C8.55996 15.4432 8.30362 15.1308 8.15224 14.7654C8.00087 14.3999 7.96126 13.9978 8.03843 13.6098C8.1156 13.2219 8.30608 12.8655 8.58579 12.5858C8.86549 12.3061 9.22186 12.1156 9.60982 12.0384C9.99778 11.9613 10.3999 12.0009 10.7654 12.1522C11.1308 12.3036 11.4432 12.56 11.6629 12.8889C11.8827 13.2178 12 13.6044 12 14C12 14.5304 11.7893 15.0391 11.4142 15.4142C11.0391 15.7893 10.5304 16 10 16Z" fill="black"/>
    <path d="M22 13C22.5523 13 23 12.5523 23 12C23 11.4477 22.5523 11 22 11C21.4477 11 21 11.4477 21 12C21 12.5523 21.4477 13 22 13Z" fill="black"/>
    <path d="M22 17C22.5523 17 23 16.5523 23 16C23 15.4477 22.5523 15 22 15C21.4477 15 21 15.4477 21 16C21 16.5523 21.4477 17 22 17Z" fill="black"/>
    <path d="M20 15C20.5523 15 21 14.5523 21 14C21 13.4477 20.5523 13 20 13C19.4477 13 19 13.4477 19 14C19 14.5523 19.4477 15 20 15Z" fill="black"/>
    <path d="M24 15C24.5523 15 25 14.5523 25 14C25 13.4477 24.5523 13 24 13C23.4477 13 23 13.4477 23 14C23 14.5523 23.4477 15 24 15Z" fill="black"/>
</svg>
