<svg xmlns="http://www.w3.org/2000/svg" version="1.1" xmlns:xlink="http://www.w3.org/1999/xlink" width="512" height="512" x="0" y="0" viewBox="0 0 480 480" style="enable-background:new 0 0 512 512" xml:space="preserve" class=""><g><path d="M8 96h48v336h48V96h48V48H8zM472 208c-44.184 0-80 35.816-80 80v144h48V288c0-17.672 14.328-32 32-32v-48z" style="" fill="#161616" data-original="#ff9f1c" opacity="1" class=""></path><path d="M310.592 150.592c21.832-21.832 16.944-62.12 16.944-62.12s-40.288-4.888-62.12 16.944-16.944 62.12-16.944 62.12 40.288 4.888 62.12-16.944zM247.72 135.72s2.936-24.176-10.168-37.272C224.456 85.352 200.28 88.28 200.28 88.28s-2.936 24.176 10.168 37.272 37.272 10.168 37.272 10.168z" style="" fill="#161616" data-original="#60c4c2" class="" opacity="1"></path><path d="M136 320c0 61.856 50.144 112 112 112-48.6 0-88-42.984-88-96s39.4-96 88-96l.464-71.768L216 152v60.752C169.752 226.536 136 269.28 136 320z" style="" fill="#161616" data-original="#cbf3f0" class="" opacity="1"></path><path d="M248 272v160c61.856 0 112-50.144 112-112 0-50.72-33.752-93.464-80-107.248V184l-31.536-15.768L248 240v32zm79.608 56c.264-2.632.392-5.304.392-8 0-2.704-.136-5.368-.392-8 .264 2.632.392 5.296.392 8 0 2.696-.136 5.368-.392 8zm-6.264 24c-8.064 18.456-22.888 33.28-41.344 41.344 18.456-8.064 33.28-22.888 41.344-41.344z" style="" fill="#161616" data-original="#ff9f1c" opacity="1" class=""></path><path d="M184 352c0-44.184 28.656-80 64-80v-32c-48.6 0-88 42.984-88 96s39.4 96 88 96c-35.344 0-64-35.816-64-80z" style="" fill="#161616" data-original="#60c4c2" class="" opacity="1"></path><path d="M208 368c0-35.344 17.912-64 40-64v-32c-35.344 0-64 35.816-64 80s28.656 80 64 80c-22.088 0-40-28.656-40-64z" style="" fill="#161616" data-original="#cbf3f0" class="" opacity="1"></path><path d="M208 368c0 35.344 17.912 64 40 64V304c-22.088 0-40 28.656-40 64z" style="" fill="#161616" data-original="#60c4c2" class="" opacity="1"></path><path d="M8 104h40v328c0 4.416 3.576 8 8 8h48c4.424 0 8-3.584 8-8V104h40c4.424 0 8-3.584 8-8V48c0-4.416-3.576-8-8-8H8c-4.424 0-8 3.584-8 8v48c0 4.416 3.576 8 8 8zm8-48h128v32h-40c-4.424 0-8 3.584-8 8v328H64V96c0-4.416-3.576-8-8-8H16V56zM472 200c-48.52 0-88 39.48-88 88v144c0 4.416 3.576 8 8 8h48c4.424 0 8-3.584 8-8V288c0-13.232 10.768-24 24-24 4.424 0 8-3.584 8-8v-48c0-4.416-3.576-8-8-8zm-8 48.808c-18.232 3.712-32 19.88-32 39.192v136h-32V288c0-37 28.048-67.568 64-71.56v32.368z" style="" fill="#ffffff" data-original="#3f3f3f" class="" opacity="1"></path><path d="M219.576 144.84c-2.48-1.232-5.424-1.104-7.784.352S208 149.224 208 152v54.952c-47.392 16.792-80 62.432-80 113.048 0 66.168 53.832 120 120 120s120-53.832 120-120c0-50.616-32.608-96.256-80-113.048V184c0-3.032-1.712-5.8-4.424-7.16l-5.12-2.56c12.776-2.272 27.064-7.312 37.792-18.04 24.304-24.304 19.448-66.936 19.224-68.744a8.002 8.002 0 0 0-6.984-6.976c-1.808-.232-44.44-5.088-68.736 19.224-2.728 2.728-5.04 5.712-7.08 8.816-1.92-5.616-4.872-11.184-9.464-15.784-15.672-15.672-42.744-12.592-43.888-12.448a8.01 8.01 0 0 0-6.984 6.976c-.136 1.144-3.224 28.216 12.456 43.896 10.664 10.664 26.544 12.624 36 12.76-.472 4.04-.688 7.784-.76 11.104l-20.456-10.224zm-3.472-24.944c-6.088-6.08-7.832-16.44-8.088-23.856 6.904.208 17.488 1.664 23.88 8.064 6.088 6.088 7.832 16.448 8.088 23.856-6.904-.208-17.48-1.664-23.88-8.064zm54.968-8.832c13.888-13.896 37.56-15.288 48.888-15.032.24 11.44-1.136 35-15.024 48.896-13.912 13.904-37.464 15.248-48.92 15.032-.256-11.408 1.088-34.928 15.056-48.896zM216 368c0-25.544 10.376-47.752 24-54.152v108.296c-13.624-6.392-24-28.6-24-54.144zm-16 0c0 9.872 1.28 19.208 3.576 27.704C196.336 383.576 192 368.44 192 352c0-36.208 20.896-66.264 48-71.264v16.304c-22.968 5.568-40 34.696-40 70.96zm40-103.424c-35.944 4.88-64 42.208-64 87.424 0 11.248 1.8 21.968 4.96 31.872C172.792 370.072 168 353.656 168 336c0-45.552 31.632-83.136 72-87.56v16.136zm-21.72-44.152a8 8 0 0 0 5.72-7.664v-47.816l16.432 8.216-.384 59.272C190.824 236.84 152 281.56 152 336c0 12.64 2.2 24.712 6.024 35.928C149.16 356.624 144 338.92 144 320c0-45.6 30.544-86.544 74.28-99.576zM352 320c0 54.648-42.392 99.48-96 103.592V240.048l.384-58.912L272 188.944v23.816a8 8 0 0 0 5.72 7.664C321.456 233.456 352 274.4 352 320z" style="" fill="#ffffff" data-original="#3f3f3f" class="" opacity="1"></path><path d="M283.2 400.672c20.408-8.92 36.552-25.072 45.472-45.472l-14.656-6.4c-7.296 16.696-20.512 29.912-37.216 37.216l6.4 14.656zM335.56 328.808c.288-2.904.44-5.84.44-8.808s-.152-5.904-.44-8.808l-15.92 1.608c.24 2.368.36 4.768.36 7.2s-.12 4.832-.36 7.216c-.24 2.432-.6 4.832-1.088 7.192l15.688 3.176a86.583 86.583 0 0 0 1.32-8.776z" style="" fill="#ffffff" data-original="#3f3f3f" class="" opacity="1"></path></g></svg>