<svg width="32" height="32" viewBox="0 0 32 32" fill="none" xmlns="http://www.w3.org/2000/svg">
    <path d="M29 26H3C2.73478 26 2.48043 25.8946 2.29289 25.7071C2.10536 25.5196 2 25.2652 2 25V8C2 7.73478 2.10536 7.48043 2.29289 7.29289C2.48043 7.10536 2.73478 7 3 7H9.46L11.17 4.45C11.2606 4.31244 11.3838 4.19938 11.5285 4.12088C11.6733 4.04238 11.8353 4.00085 12 4H20C20.1647 4.00085 20.3267 4.04238 20.4715 4.12088C20.6162 4.19938 20.7394 4.31244 20.83 4.45L22.54 7H29C29.2652 7 29.5196 7.10536 29.7071 7.29289C29.8946 7.48043 30 7.73478 30 8V25C30 25.2652 29.8946 25.5196 29.7071 25.7071C29.5196 25.8946 29.2652 26 29 26ZM4 24H28V9H22C21.8353 8.99915 21.6733 8.95763 21.5285 8.87912C21.3838 8.80062 21.2606 8.68756 21.17 8.55L19.46 6H12.54L10.83 8.55C10.7394 8.68756 10.6162 8.80062 10.4715 8.87912C10.3267 8.95763 10.1647 8.99915 10 9H4V24Z" fill="black"/>
    <path d="M16 22C14.8133 22 13.6533 21.6481 12.6666 20.9888C11.6799 20.3295 10.9109 19.3925 10.4567 18.2961C10.0026 17.1997 9.88378 15.9933 10.1153 14.8295C10.3468 13.6656 10.9182 12.5965 11.7574 11.7574C12.5965 10.9182 13.6656 10.3468 14.8295 10.1153C15.9933 9.88378 17.1997 10.0026 18.2961 10.4567C19.3925 10.9109 20.3295 11.6799 20.9888 12.6666C21.6481 13.6533 22 14.8133 22 16C22 17.5913 21.3679 19.1174 20.2426 20.2426C19.1174 21.3679 17.5913 22 16 22ZM16 12C15.2089 12 14.4355 12.2346 13.7777 12.6741C13.1199 13.1136 12.6072 13.7384 12.3045 14.4693C12.0017 15.2002 11.9225 16.0044 12.0769 16.7804C12.2312 17.5563 12.6122 18.269 13.1716 18.8284C13.731 19.3878 14.4437 19.7688 15.2196 19.9231C15.9956 20.0775 16.7998 19.9983 17.5307 19.6955C18.2616 19.3928 18.8864 18.8801 19.3259 18.2223C19.7654 17.5645 20 16.7911 20 16C20 14.9391 19.5786 13.9217 18.8284 13.1716C18.0783 12.4214 17.0609 12 16 12Z" fill="black"/>
</svg>
