<svg width="32" height="32" viewBox="0 0 32 32" fill="none" xmlns="http://www.w3.org/2000/svg">
    <path d="M14.98 3C14.9215 3.00009 14.8631 3.00531 14.8054 3.0156C11.6212 3.58119 8.75883 5.30502 6.76971 7.85505C4.78059 10.4051 3.80539 13.601 4.03195 16.8271C4.25851 20.0532 5.6708 23.0814 7.9968 25.3284C10.3228 27.5754 13.398 28.8823 16.63 28.9973C16.7941 29.0033 16.9582 28.9973 17.1209 28.9973C19.2197 28.9984 21.288 28.4941 23.1507 27.5271C25.0135 26.5601 26.6161 25.1588 27.8229 23.4417C27.9208 23.2937 27.9779 23.1226 27.9885 22.9455C27.9991 22.7684 27.9629 22.5917 27.8835 22.4331C27.8041 22.2744 27.6843 22.1396 27.5361 22.042C27.388 21.9444 27.2167 21.8876 27.0396 21.8773C25.0418 21.702 23.111 21.0697 21.3966 20.0293C19.6821 18.9888 18.2299 17.568 17.1521 15.8767C16.0743 14.1855 15.3999 12.269 15.1809 10.2755C14.9619 8.28204 15.2043 6.26489 15.8892 4.38C15.9475 4.22919 15.9689 4.06665 15.9516 3.9059C15.9344 3.74515 15.879 3.59085 15.79 3.45584C15.7011 3.32084 15.5812 3.20903 15.4403 3.12974C15.2994 3.05045 15.1416 3.00597 14.98 3Z" fill="black"/>
</svg>
