<svg width="32" height="32" viewBox="0 0 32 32" fill="none" xmlns="http://www.w3.org/2000/svg">
    <path d="M26 28H6C5.46974 27.9994 4.96135 27.7886 4.5864 27.4136C4.21145 27.0386 4.00056 26.5303 4 26V11C4.00056 10.4697 4.21145 9.96135 4.5864 9.5864C4.96135 9.21145 5.46974 9.00056 6 9H11.6665C12.0993 9.0007 12.5204 9.14098 12.8672 9.4L16.3335 12H26C26.5303 12.0006 27.0386 12.2114 27.4136 12.5864C27.7886 12.9614 27.9994 13.4697 28 14V26C27.9994 26.5303 27.7886 27.0386 27.4136 27.4136C27.0386 27.7886 26.5303 27.9994 26 28ZM11.6665 11H5.9985L6 26H26V14H15.6665L11.6665 11ZM28 9H17.6665L13.6665 6H6V4H13.6665C14.0993 4.0007 14.5204 4.14098 14.8672 4.4L18.3335 7H28V9Z" fill="black"/>
</svg>
