<svg width="32" height="32" viewBox="0 0 32 32" fill="none" xmlns="http://www.w3.org/2000/svg">
    <path
        d="M16 27C17.1046 27 18 26.1046 18 25C18 23.8954 17.1046 23 16 23C14.8954 23 14 23.8954 14 25C14 26.1046 14.8954 27 16 27Z"
        fill="black" />
    <path
        d="M30 3.4141L28.5859 2L2 28.5859L3.4141 30L14.0962 19.3179C15.1229 18.9676 16.2259 18.9054 17.2855 19.138C18.3451 19.3706 19.3206 19.8891 20.1062 20.6372L21.52 19.2236C20.1331 17.8952 18.3131 17.1125 16.395 17.0195L19.7825 13.6318C21.4924 14.1988 23.0526 15.1437 24.3472 16.3965L25.76 14.9829C24.4831 13.7422 22.9808 12.7569 21.334 12.08L24.3308 9.083C25.8921 9.8937 27.3257 10.9297 28.5854 12.1577L30 10.7432V10.7412C28.7468 9.51646 27.3383 8.46155 25.8105 7.6035L30 3.4141ZM14.68 13.0776L16.7215 11.0361C16.481 11.0234 16.2437 11 16 11C12.3457 10.9992 8.83702 12.4329 6.229 14.9927L7.6426 16.4063C9.55198 14.5436 12.0288 13.372 14.68 13.0776ZM16 7C17.4267 7.00555 18.8476 7.18194 20.2324 7.5254L21.875 5.8828C18.4321 4.82318 14.7666 4.71534 11.2674 5.57072C7.76818 6.42609 4.56579 8.21278 2 10.7412V10.7637L3.4043 12.168C6.75945 8.85532 11.285 6.99848 16 7Z"
        fill="black" />
</svg>
