<svg width="32" height="32" viewBox="0 0 32 32" fill="none" xmlns="http://www.w3.org/2000/svg">
    <path
        d="M25.95 7.65006L25.9547 7.64616C25.8629 7.53676 25.7577 7.44006 25.6622 7.33366C25.4781 7.12856 25.295 6.92366 25.0987 6.73066C24.9605 6.59486 24.8131 6.46936 24.6687 6.33996C24.4856 6.17546 24.303 6.01136 24.1106 5.85756C23.9514 5.72966 23.7862 5.61096 23.6211 5.49086C23.429 5.35086 23.2356 5.21406 23.0357 5.08466C22.8614 4.97186 22.6834 4.86586 22.5035 4.76086C22.2981 4.64179 22.0897 4.52819 21.8782 4.42006C21.6936 4.32586 21.5082 4.23546 21.3182 4.15006C21.0958 4.05006 20.8692 3.95866 20.6402 3.87076C20.4508 3.79846 20.2625 3.72526 20.0689 3.66176C19.8226 3.58026 19.5709 3.51236 19.3182 3.44546C19.1334 3.39616 18.9508 3.34296 18.7628 3.30236C18.4728 3.23896 18.1763 3.19496 17.8795 3.15156C17.7205 3.12856 17.565 3.09636 17.4041 3.07876C15.2687 2.84165 13.1079 3.14027 11.1168 3.94766C9.12573 4.75504 7.36718 6.04574 6.00001 7.70316V4.00006H4.00001V12.0001H12V10.0001H6.81151C7.80506 8.46691 9.16608 7.20642 10.7708 6.3332C12.3755 5.45997 14.1731 5.0017 16 5.00006C16.3973 5.00109 16.7942 5.02342 17.189 5.06696C17.3252 5.08156 17.457 5.10896 17.5916 5.12846C17.8425 5.16506 18.093 5.20266 18.3384 5.25596C18.4976 5.29056 18.6528 5.33596 18.8096 5.37746C19.0227 5.43366 19.2354 5.49126 19.4431 5.55966C19.6074 5.61436 19.7681 5.67636 19.929 5.73786C20.1216 5.81206 20.3125 5.88876 20.4995 5.97276C20.6606 6.04546 20.8188 6.12276 20.9758 6.20276C21.1543 6.29362 21.3297 6.38919 21.502 6.48946C21.655 6.57876 21.8066 6.66946 21.9551 6.76526C22.123 6.87416 22.2859 6.98946 22.4473 7.10656C22.5879 7.20916 22.729 7.31026 22.8643 7.41906C23.0259 7.54846 23.1799 7.68666 23.3343 7.82536C23.4568 7.93536 23.5821 8.04216 23.6995 8.15736C23.8663 8.32096 24.0218 8.49526 24.178 8.66906C25.368 9.99646 26.2173 11.5934 26.6527 13.3221C27.0881 15.0508 27.0965 16.8595 26.6773 18.5922C26.258 20.3249 25.4236 21.9297 24.2461 23.2681C23.0685 24.6066 21.5831 25.6385 19.9179 26.2751C18.2527 26.9116 16.4577 27.1336 14.6876 26.9219C12.9175 26.7103 11.2254 26.0713 9.75726 25.0601C8.2891 24.0488 7.0889 22.6957 6.26014 21.1174C5.43137 19.539 4.9989 17.7828 5.00001 16.0001H3.00001C2.99737 18.0912 3.49922 20.1521 4.46299 22.0079C5.42676 23.8638 6.824 25.4597 8.53614 26.6603C10.2483 27.8609 12.2248 28.6308 14.2979 28.9046C16.3711 29.1784 18.4797 28.948 20.4448 28.233C22.4099 27.5181 24.1736 26.3396 25.5861 24.7976C26.9986 23.2556 28.0182 21.3956 28.5586 19.3755C29.0989 17.3553 29.1439 15.2347 28.6898 13.1934C28.2357 11.1522 27.2958 9.25059 25.95 7.65006Z"
        fill="black" />
</svg>
