<svg width="32" height="32" viewBox="0 0 32 32" fill="none" xmlns="http://www.w3.org/2000/svg">
    <path d="M29.37 11.84C29.1015 10.97 28.7464 10.1291 28.31 9.33001C27.6646 8.14402 26.8531 7.05635 25.9 6.10001C23.942 4.14221 21.4474 2.80899 18.7317 2.26891C16.016 1.72883 13.2012 2.00616 10.6431 3.06583C8.085 4.1255 5.89858 5.91991 4.3603 8.22217C2.82203 10.5244 2.00098 13.2311 2.00098 16C2.00098 18.7689 2.82203 21.4756 4.3603 23.7778C5.89858 26.0801 8.085 27.8745 10.6431 28.9342C13.2012 29.9939 16.016 30.2712 18.7317 29.7311C21.4474 29.191 23.942 27.8578 25.9 25.9C26.8531 24.9437 27.6646 23.856 28.31 22.67C28.7464 21.8709 29.1015 21.03 29.37 20.16C30.2131 17.4508 30.2131 14.5493 29.37 11.84ZM3.99997 16C3.99997 12.8174 5.26425 9.76516 7.51468 7.51472C9.76512 5.26429 12.8174 4.00001 16 4.00001V28C12.8174 28 9.76512 26.7357 7.51468 24.4853C5.26425 22.2348 3.99997 19.1826 3.99997 16Z" fill="black"/>
</svg>
