<svg width="32" height="32" viewBox="0 0 32 32" fill="none" xmlns="http://www.w3.org/2000/svg">
    <path d="M7.28779 23.2922L15.2852 15.2949L16.6994 16.7091L8.702 24.7064L7.28779 23.2922Z" fill="black"/>
    <path d="M17 30.0001C16.8733 30.0004 16.7478 29.9766 16.63 29.9301C16.4662 29.8648 16.3225 29.7573 16.2136 29.6185C16.1048 29.4798 16.0345 29.3147 16.01 29.1401L15.01 22.1401L17.01 21.8601L17.76 27.1301L21 24.5201V17.0001C20.9992 16.8685 21.0245 16.738 21.0742 16.6162C21.124 16.4943 21.1973 16.3835 21.29 16.2901L25.36 12.2201C26.1986 11.3871 26.8638 10.3961 27.3169 9.30445C27.7701 8.21276 28.0022 7.04206 28 5.86006V4.00006H26.14C24.958 3.99782 23.7873 4.22999 22.6956 4.68314C21.6039 5.13629 20.6129 5.80142 19.78 6.64006L15.71 10.7101C15.6166 10.8027 15.5057 10.8761 15.3839 10.9258C15.2621 10.9756 15.1316 11.0008 15 11.0001H7.48L4.87 14.2601L10.14 15.0101L9.86 17.0101L2.86 16.0101C2.68534 15.9856 2.52027 15.9153 2.38152 15.8064C2.24278 15.6975 2.13531 15.5539 2.07 15.3901C2.00388 15.2251 1.98292 15.0455 2.00929 14.8697C2.03565 14.6939 2.10838 14.5284 2.22 14.3901L6.22 9.39006C6.31212 9.27037 6.43015 9.1731 6.56524 9.10556C6.70034 9.03801 6.84897 9.00194 7 9.00006H14.59L18.36 5.22006C19.3792 4.19517 20.5917 3.3828 21.9272 2.83005C23.2627 2.27731 24.6946 1.99519 26.14 2.00006H28C28.5304 2.00006 29.0391 2.21078 29.4142 2.58585C29.7893 2.96092 30 3.46963 30 4.00006V5.86006C30.0049 7.30543 29.7227 8.73738 29.17 10.0729C28.6173 11.4084 27.8049 12.6209 26.78 13.6401L23 17.4101V25.0001C22.9993 25.1503 22.9648 25.2984 22.899 25.4334C22.8332 25.5685 22.7379 25.6869 22.62 25.7801L17.62 29.7801C17.4441 29.9212 17.2256 29.9988 17 30.0001Z" fill="black"/>
</svg>
