<svg width="32" height="32" viewBox="0 0 32 32" fill="none" xmlns="http://www.w3.org/2000/svg">
    <path d="M8 12H17V14H8V12ZM8 17H13V19H8V17Z" fill="black"/>
    <path d="M21 26H4C3.46975 25.9994 2.9614 25.7885 2.58646 25.4135C2.21152 25.0386 2.00061 24.5302 2 24V8C2.00061 7.46975 2.21152 6.9614 2.58646 6.58646C2.9614 6.21152 3.46975 6.00061 4 6H21C21.5302 6.00061 22.0386 6.21152 22.4135 6.58646C22.7885 6.9614 22.9994 7.46975 23 8V12.0566L28.4189 8.1866C28.5683 8.07967 28.7444 8.01601 28.9276 8.00262C29.1109 7.98922 29.2943 8.02661 29.4577 8.11068C29.6211 8.19474 29.7582 8.32222 29.8539 8.47912C29.9495 8.63601 30.0001 8.81624 30 9V23C30.0001 23.1838 29.9496 23.364 29.8539 23.5209C29.7583 23.6778 29.6212 23.8053 29.4578 23.8894C29.2944 23.9735 29.111 24.0109 28.9277 23.9975C28.7444 23.9841 28.5684 23.9204 28.4189 23.8135L23 19.9434V24C22.9994 24.5302 22.7885 25.0386 22.4135 25.4135C22.0386 25.7885 21.5302 25.9994 21 26ZM4 8V24.001L21 24V18C20.9999 17.8162 21.0504 17.636 21.1461 17.4791C21.2417 17.3222 21.3788 17.1947 21.5422 17.1106C21.7056 17.0265 21.889 16.9891 22.0723 17.0025C22.2556 17.0159 22.4316 17.0796 22.5811 17.1865L28 21.0566V10.9434L22.5811 14.8134C22.4317 14.9203 22.2556 14.984 22.0724 14.9974C21.8891 15.0108 21.7057 14.9734 21.5423 14.8893C21.3789 14.8053 21.2418 14.6778 21.1461 14.5209C21.0505 14.364 20.9999 14.1838 21 14V8H4Z" fill="black"/>
</svg>
