<svg width="32" height="32" viewBox="0 0 32 32" fill="none" xmlns="http://www.w3.org/2000/svg">
    <path d="M29 22.9999H25V20.9999H27.3821L19.5 5.236L18.3945 7.4472L16.6054 6.5527L18.6054 2.5527C18.7748 2.214 19.1374 2 19.4999 2C19.8624 2 20.225 2.214 20.3944 2.5527L29.8944 21.5527C30.0492 21.8628 30.0328 22.2309 29.8505 22.5257C29.6684 22.8205 29.3467 22.9999 29 22.9999Z"
          fill="black"/>
    <path d="M14 26.25C14.6904 26.25 15.25 25.6904 15.25 25C15.25 24.3096 14.6904 23.75 14 23.75C13.3096 23.75 12.75 24.3096 12.75 25C12.75 25.6904 13.3096 26.25 14 26.25Z"
          fill="black"/>
    <path d="M13 15H15V22H13V15Z" fill="black"/>
    <path d="M25 30H3C2.6501 30 2.3257 29.8171 2.1445 29.5177C1.9633 29.2183 1.9519 28.8459 2.1142 28.536L13.1143 7.536C13.2869 7.2064 13.6435 7 14 7C14.3565 7 14.7131 7.2064 14.8857 7.536L25.8857 28.536C26.0481 28.8459 26.0366 29.2183 25.8554 29.5177C25.6742 29.8171 25.3499 30 25 30ZM4.6526 28H23.3474L14 10.1552L4.6526 28Z"
          fill="black"/>
</svg>
